<?xml version="1.0" encoding="utf-8"?>
<!-- Generator: Adobe Illustrator 27.5.0, SVG Export Plug-In . SVG Version: 6.00 Build 0)  -->
<svg version="1.1" id="Layer_1" xmlns="http://www.w3.org/2000/svg" xmlns:xlink="http://www.w3.org/1999/xlink" x="0px" y="0px"
	 viewBox="0 0 4000 4000" style="enable-background:new 0 0 4000 4000;" xml:space="preserve">
<g>
	<rect x="0.5" y="0.5" style="fill:#FFFFFF;" width="3999" height="3999"/>
	<path d="M3999,1v3998H1V1H3999 M4000,0H0v4000h4000V0L4000,0z"/>
</g>
<g>
	<g>
		<defs>
			<path id="SVGID_1_" d="M1835.162,1760.462c69.258,69.933-15.658,174.807-64.09,160.643
				c-60.246-17.615-90.459-60.843-126.397-99.126c-23.822-25.376-47.233-45.098-69.927-59.764
				c-17.822-9.248-29.479-16.46-29.479-16.46c-267.387-125.635-408.349,456.74,134.434,673.74
				c453.609,181.347,1098.661-232.858,611.835-658.813c-201.575-176.373-494.279-261.016-441.38-522.978
				c48.565-240.513,386.914-137.855,611.693-40.064c21.437,9.324,41.837,18.604,60.857,27.54
				c83.952,39.438,140.968,72.134,140.968,72.134c101.609,65.213,212.906-112.554-99.442-322.442
				c-286.408-192.456-676.538-158.217-860.238,18.39c-215.556,207.233-113.148,465.302,31.748,653.702
				C1767.798,1688.642,1801.931,1726.908,1835.162,1760.462"/>
		</defs>
		<clipPath id="SVGID_00000124150286525054431820000009011672072136874687_">
			<use xlink:href="#SVGID_1_"  style="overflow:visible;"/>
		</clipPath>
		
			<linearGradient id="SVGID_00000051352671331441879610000018224048967487953572_" gradientUnits="userSpaceOnUse" x1="2041.3256" y1="841.4221" x2="1969.3124" y2="2612.2107">
			<stop  offset="0" style="stop-color:#FFCE4B"/>
			<stop  offset="1" style="stop-color:#C31296"/>
		</linearGradient>
		
			<rect x="1136.919" y="782.416" style="clip-path:url(#SVGID_00000124150286525054431820000009011672072136874687_);fill:url(#SVGID_00000051352671331441879610000018224048967487953572_);" width="1739.661" height="1818.425"/>
	</g>
	<path style="fill-rule:evenodd;clip-rule:evenodd;fill:#3E005D;" d="M1850.157,1237.704
		c-52.899,261.963,239.805,346.605,441.38,522.978c0,0-564.5-539.99,170.313-563.042
		C2237.072,1099.849,1898.722,997.191,1850.157,1237.704"/>
	<path style="fill-rule:evenodd;clip-rule:evenodd;fill:#4E046D;" d="M1835.162,1760.462
		c-33.231-33.554-67.364-71.82-99.419-113.498c76.622,220.334-90.465,151.847-160.995,115.251
		c22.692,14.666,46.105,34.389,69.927,59.764c35.938,38.284,66.151,81.511,126.397,99.126
		C1819.504,1935.269,1904.42,1830.396,1835.162,1760.462"/>
	<defs>
		<filter id="Adobe_OpacityMaskFilter" filterUnits="userSpaceOnUse" x="1813.685" y="1072.942" width="648.165" height="681.563">
			<feColorMatrix  type="matrix" values="1 0 0 0 0  0 1 0 0 0  0 0 1 0 0  0 0 0 1 0"/>
		</filter>
	</defs>
	
		<mask maskUnits="userSpaceOnUse" x="1813.685" y="1072.942" width="648.165" height="681.563" id="SVGID_00000073707884719856821730000010629727030929905830_">
		<g style="filter:url(#Adobe_OpacityMaskFilter);">
			
				<linearGradient id="SVGID_00000080910747712693917050000015021527212501355675_" gradientUnits="userSpaceOnUse" x1="-1840.7152" y1="1352.1696" x2="-999.1373" y2="1976.3206" gradientTransform="matrix(1 0 0 1 3362.905 -394.9855)">
				<stop  offset="0" style="stop-color:#FFFFFF"/>
				<stop  offset="1" style="stop-color:#000000"/>
			</linearGradient>
			
				<rect x="1813.683" y="1072.94" style="fill:url(#SVGID_00000080910747712693917050000015021527212501355675_);" width="648.167" height="681.566"/>
		</g>
	</mask>
	
		<path style="mask:url(#SVGID_00000073707884719856821730000010629727030929905830_);fill-rule:evenodd;clip-rule:evenodd;fill:#FCE2A6;" d="
		M1850.157,1237.704c48.565-240.513,386.914-137.855,611.693-40.064c-154.127-92.033-539.57-228.818-629.311,3.214
		c-34.295,88.67-44.709,240.927,175.404,387.502c0,0,218.294,119.078,276.455,166.15
		C2083.136,1582.296,1797.881,1496.591,1850.157,1237.704"/>
	<defs>
		
			<filter id="Adobe_OpacityMaskFilter_00000075870789108500100020000010718589448751530386_" filterUnits="userSpaceOnUse" x="1308.668" y="1847.867" width="1156.452" height="615.377">
			<feColorMatrix  type="matrix" values="1 0 0 0 0  0 1 0 0 0  0 0 1 0 0  0 0 0 1 0"/>
		</filter>
	</defs>
	
		<mask maskUnits="userSpaceOnUse" x="1308.668" y="1847.867" width="1156.452" height="615.377" id="SVGID_00000155853217526332048270000006030284676408556176_">
		<g style="filter:url(#Adobe_OpacityMaskFilter_00000075870789108500100020000010718589448751530386_);">
			
				<linearGradient id="SVGID_00000175288285492614994820000016066621203838037655_" gradientUnits="userSpaceOnUse" x1="-1199.9277" y1="3517.8618" x2="-1489.3008" y2="1961.6544" gradientTransform="matrix(1 0 0 1 3286.6045 -287.9056)">
				<stop  offset="0" style="stop-color:#FFFFFF"/>
				<stop  offset="1" style="stop-color:#000000"/>
			</linearGradient>
			
				<rect x="1308.667" y="1847.867" style="fill:url(#SVGID_00000175288285492614994820000016066621203838037655_);" width="1156.456" height="615.377"/>
		</g>
	</mask>
	
		<path style="mask:url(#SVGID_00000155853217526332048270000006030284676408556176_);fill-rule:evenodd;clip-rule:evenodd;fill:#4E046D;" d="
		M2376.077,1847.867c-362.979,918.741-1062.002,46.934-1062.002,46.934c-29.654,162.289,58.599,401.946,365.628,524.694
		C2102.238,2588.419,2690.886,2240.591,2376.077,1847.867"/>
	<g>
		<defs>
			<path id="SVGID_00000113333586815744790500000000328678682997597616_" d="M1509.208,1528.235c0,200.64-298.055,145.412-305.068,0
				C1195.905,1357.493,1509.208,1358.132,1509.208,1528.235"/>
		</defs>
		<clipPath id="SVGID_00000000193136870288039650000002841860075413457285_">
			<use xlink:href="#SVGID_00000113333586815744790500000000328678682997597616_"  style="overflow:visible;"/>
		</clipPath>
		
			<linearGradient id="SVGID_00000034071807092265040050000008196558327411963277_" gradientUnits="userSpaceOnUse" x1="1357.0166" y1="1399.829" x2="1348.2131" y2="1682.7819">
			<stop  offset="0" style="stop-color:#FFCE4B"/>
			<stop  offset="1" style="stop-color:#C31296"/>
		</linearGradient>
		
			<rect x="1195.905" y="1357.493" style="clip-path:url(#SVGID_00000000193136870288039650000002841860075413457285_);fill:url(#SVGID_00000034071807092265040050000008196558327411963277_);" width="313.303" height="371.382"/>
	</g>
	<text transform="matrix(1 0 0 1 1197.4609 2956.168)" style="fill:#231916; font-family:'NexaBold'; font-size:452.3539px;">INI</text>
	<text transform="matrix(1 0 0 1 1766.0703 2956.168)" style="fill:#231916; font-family:'NexaBold'; font-size:452.3539px;">TIA</text>
	<text transform="matrix(1 0 0 1 2508.3828 2956.168)" style="fill:#231916; font-family:'NexaBold'; font-size:452.3539px;">L</text>
	<text transform="matrix(1 0 0 1 1344.3086 3130.9609)" style="fill:#231916; font-family:'NexaBold'; font-size:105.0003px;">A</text>
	<text transform="matrix(1 0 0 1 1435.8398 3130.9609)" style="fill:#231916; font-family:'NexaBold'; font-size:105.0003px;">W</text>
	<text transform="matrix(1 0 0 1 1572.8398 3130.9609)" style="fill:#231916; font-family:'NexaBold'; font-size:105.0003px;">E</text>
	<text transform="matrix(1 0 0 1 1663.2188 3130.9609)" style="fill:#231916; font-family:'NexaBold'; font-size:105.0003px;">S</text>
	<text transform="matrix(1 0 0 1 1755.2773 3130.9609)" style="fill:#231916; font-family:'NexaBold'; font-size:105.0003px;">O</text>
	<text transform="matrix(1 0 0 1 1860.3633 3130.9609)" style="fill:#231916; font-family:'NexaBold'; font-size:105.0003px;">M</text>
	<text transform="matrix(1 0 0 1 1973.9414 3130.9609)" style="fill:#231916; font-family:'NexaBold'; font-size:105.0003px;">E </text>
	<text transform="matrix(1 0 0 1 2083.3242 3130.9609)" style="fill:#231916; font-family:'NexaBold'; font-size:105.0003px;">S</text>
	<text transform="matrix(1 0 0 1 2175.3867 3130.9609)" style="fill:#231916; font-family:'NexaBold'; font-size:105.0003px;">L</text>
	<text transform="matrix(1 0 0 1 2257.2617 3130.9609)" style="fill:#231916; font-family:'NexaBold'; font-size:105.0003px;">O</text>
	<text transform="matrix(1 0 0 1 2362.3398 3130.9609)" style="fill:#231916; font-family:'NexaBold'; font-size:105.0003px;">G</text>
	<text transform="matrix(1 0 0 1 2461.5313 3130.9609)" style="fill:#231916; font-family:'NexaBold'; font-size:105.0003px;">A</text>
	<text transform="matrix(1 0 0 1 2563.9961 3130.9609)" style="fill:#231916; font-family:'NexaBold'; font-size:105.0003px;">N</text>
</g>
</svg>
